<?xml version="1.0" standalone="no"?><!DOCTYPE svg PUBLIC "-//W3C//DTD SVG 1.1//EN" "http://www.w3.org/Graphics/SVG/1.1/DTD/svg11.dtd"><svg t="1633068523106" class="icon" viewBox="0 0 1024 1024" version="1.1" xmlns="http://www.w3.org/2000/svg" p-id="1023" xmlns:xlink="http://www.w3.org/1999/xlink" width="200" height="200"><defs><style type="text/css"></style></defs><path d="M858.4 610.65c-1.92-54.98-16.78-106.73-41.44-152.21-23.95-44.07-79.24-122.39-136.14-199.61-57.71-78.22-117.13-155.23-147.35-194.14-10.31-13.34-30.42-13.34-40.73 0C432.6 142 257.56 369.61 209.25 458.34c-26.58 48.92-41.64 105.01-41.64 164.74 0 189.7 152.81 343.63 342.01 345.55 8.69 0.1 17.38-0.2 25.87-0.71 141.8-9.2 261.56-105.21 305.32-235.49 11.02-32.75 17.18-67.51 17.79-103.8 0.1-6.05 0-12.02-0.2-17.98z" fill="#79C23C" p-id="1024"></path><path d="M805.94 654.61c-17.99 144.93-143.51 257.32-292.59 255.9-16.68-0.2-32.95-1.72-48.71-4.55l-3.03-0.61c-135.02-25.57-237.1-144.22-237.1-286.62v-0.71c0.1-48.92 34.46-91.36 82.07-102.38 15.46-3.64 31.63-5.46 48.21-5.46 64.48 0 122.29 28.6 161.4 73.88 2.32 3.74 4.75 7.38 7.28 10.92a209.982 209.982 0 0 1 39.21-18.29c21.83-7.58 45.38-11.72 69.84-11.72 71.45 0 134.72 35.17 173.33 89.24 0.09 0.1 0.09 0.2 0.09 0.4z" fill="#D5EEB3" p-id="1025"></path><path d="M535.79 610.55c-7.18-8.29-13.64-17.18-19.51-26.58 7.08 8.29 13.65 17.18 19.51 26.58z" fill="#EC5451" p-id="1026"></path><path d="M805.94 654.21v0.4c-31.84 19-69.03 29.81-108.75 29.81-64.48 0-122.29-28.6-161.4-73.88-4.35-5.05-8.39-10.21-12.23-15.56a209.982 209.982 0 0 1 39.21-18.29c21.83-7.58 45.38-11.72 69.84-11.72 71.46 0 134.73 35.17 173.33 89.24z" fill="#ABDC7F" p-id="1027"></path></svg>