<?xml version="1.0" standalone="no"?><!DOCTYPE svg PUBLIC "-//W3C//DTD SVG 1.1//EN" "http://www.w3.org/Graphics/SVG/1.1/DTD/svg11.dtd"><svg t="1633068541285" class="icon" viewBox="0 0 1024 1024" version="1.1" xmlns="http://www.w3.org/2000/svg" p-id="1164" xmlns:xlink="http://www.w3.org/1999/xlink" width="200" height="200"><defs><style type="text/css"></style></defs><path d="M852.91 747.29H173.4c-50.65 0-91.71-41.06-91.71-91.71v-447.1c0-50.65 41.06-91.71 91.71-91.71h679.51c50.65 0 91.71 41.06 91.71 91.71v447.1c0 50.65-41.06 91.71-91.71 91.71zM683.55 907.31h-340.8c-21.03 0-38.08-17.05-38.08-38.08s17.05-38.08 38.08-38.08h340.8c21.03 0 38.08 17.05 38.08 38.08s-17.05 38.08-38.08 38.08z" fill="#9678B8" p-id="1165"></path><path d="M81.63 476.11h863.04v76.16H81.63z" fill="#FFFFFF" p-id="1166"></path></svg>